<svg version="1.1" id="Layer_1" xmlns="http://www.w3.org/2000/svg" xmlns:xlink="http://www.w3.org/1999/xlink" x="0px" y="0px"
	 width="100%" viewBox="0 0 180 180" enable-background="new 0 0 180 180" xml:space="preserve">
<path fill="#ECE9DE" opacity="1.000000" stroke="none" 
	d="
M1.000000,111.000000 
	C1.000000,97.979103 1.000000,84.958214 1.330504,71.783203 
	C2.100539,70.976044 2.787019,70.376930 2.943196,69.661980 
	C6.182959,54.831070 13.115305,41.784111 23.094084,30.566101 
	C35.701256,16.393288 51.385075,7.000581 70.066391,2.882268 
	C70.495071,2.787765 70.693939,1.650742 71.000000,1.000001 
	C84.020897,1.000000 97.041786,1.000000 110.216789,1.330505 
	C114.405113,3.106747 118.420395,4.608176 122.476936,5.988278 
	C137.541992,11.113661 150.198959,20.115910 160.292038,32.048386 
	C169.550598,42.994289 176.365936,55.647678 179.120605,70.076576 
	C179.199341,70.488953 180.349457,70.696785 181.000000,71.000000 
	C181.000000,84.020897 181.000000,97.041786 180.669495,110.216789 
	C178.893265,114.405113 177.391830,118.420380 176.011734,122.476921 
	C170.886337,137.541977 161.884125,150.198959 149.951645,160.292038 
	C139.005737,169.550644 126.352318,176.365906 111.923431,179.120605 
	C111.511055,179.199326 111.303223,180.349457 111.000000,181.000000 
	C97.979103,181.000000 84.958214,181.000000 71.783211,180.669495 
	C70.976044,179.899460 70.376915,179.212997 69.661957,179.056808 
	C54.831043,175.817047 41.784096,168.884689 30.566095,158.905899 
	C16.393288,146.298721 7.000600,130.614899 2.882266,111.933601 
	C2.787760,111.504921 1.650740,111.306061 1.000000,111.000000 
M110.606766,55.358383 
	C111.212852,59.431152 111.818932,63.503922 112.458206,67.799736 
	C114.309479,67.512856 116.230751,67.056396 118.170914,66.952431 
	C120.940689,66.804024 121.762138,65.506264 121.751266,62.796566 
	C121.702980,50.759212 115.048279,40.371319 103.420898,37.113266 
	C97.208870,35.372627 90.247055,35.222881 83.753006,35.803112 
	C70.863152,36.954807 61.108250,47.776146 60.950001,60.669914 
	C60.700729,80.980911 60.806583,101.297707 60.924877,121.611107 
	C60.977520,130.651047 65.216225,137.802536 72.828972,142.297028 
	C84.269806,149.051605 96.482864,148.903168 108.135094,143.104462 
	C118.109489,138.140732 122.853027,127.269363 121.178055,115.895340 
	C118.296356,115.396698 115.296150,114.877548 111.847336,114.280769 
	C111.847336,116.417160 111.893044,118.060341 111.839920,119.700325 
	C111.496216,130.309937 104.761055,137.088486 94.232300,137.386017 
	C91.737587,137.456528 89.231560,137.471909 86.742165,137.322418 
	C77.833382,136.787399 70.842438,130.306564 70.701828,121.339783 
	C70.386002,101.197868 70.553406,81.047562 70.618866,60.900982 
	C70.637001,55.319901 73.436790,51.026409 77.858498,47.883076 
	C87.647087,40.924488 103.989418,44.418671 110.606766,55.358383 
z"/>
<path fill="#000000" opacity="1.000000" stroke="none" 
	d="
M181.000000,70.531342 
	C180.349457,70.696785 179.199341,70.488953 179.120605,70.076576 
	C176.365936,55.647678 169.550598,42.994289 160.292038,32.048386 
	C150.198959,20.115910 137.541992,11.113661 122.476936,5.988278 
	C118.420395,4.608176 114.405113,3.106747 110.685448,1.330505 
	C134.260193,1.000000 157.520370,1.000000 181.000000,1.000000 
	C181.000000,24.020430 181.000000,47.041557 181.000000,70.531342 
z"/>
<path fill="#000000" opacity="1.000000" stroke="none" 
	d="
M111.468658,181.000000 
	C111.303223,180.349457 111.511055,179.199326 111.923431,179.120605 
	C126.352318,176.365906 139.005737,169.550644 149.951645,160.292038 
	C161.884125,150.198959 170.886337,137.541977 176.011734,122.476921 
	C177.391830,118.420380 178.893265,114.405113 180.669495,110.685448 
	C181.000000,134.260193 181.000000,157.520370 181.000000,181.000000 
	C157.979568,181.000000 134.958450,181.000000 111.468658,181.000000 
z"/>
<path fill="#000000" opacity="1.000000" stroke="none" 
	d="
M70.531342,1.000001 
	C70.693939,1.650742 70.495071,2.787765 70.066391,2.882268 
	C51.385075,7.000581 35.701256,16.393288 23.094084,30.566101 
	C13.115305,41.784111 6.182959,54.831070 2.943196,69.661980 
	C2.787019,70.376930 2.100539,70.976044 1.330504,71.314545 
	C1.000000,47.739807 1.000000,24.479618 1.000000,1.000000 
	C24.020430,1.000000 47.041557,1.000000 70.531342,1.000001 
z"/>
<path fill="#000000" opacity="1.000000" stroke="none" 
	d="
M1.000000,111.468658 
	C1.650740,111.306061 2.787760,111.504921 2.882266,111.933601 
	C7.000600,130.614899 16.393288,146.298721 30.566095,158.905899 
	C41.784096,168.884689 54.831043,175.817047 69.661957,179.056808 
	C70.376915,179.212997 70.976044,179.899460 71.314552,180.669495 
	C47.739815,181.000000 24.479630,181.000000 1.000000,181.000000 
	C1.000000,157.979568 1.000000,134.958450 1.000000,111.468658 
z"/>
<path fill="#3C4A53" opacity="1.000000" stroke="none" 
	d="
M110.407341,55.021526 
	C103.989418,44.418671 87.647087,40.924488 77.858498,47.883076 
	C73.436790,51.026409 70.637001,55.319901 70.618866,60.900982 
	C70.553406,81.047562 70.386002,101.197868 70.701828,121.339783 
	C70.842438,130.306564 77.833382,136.787399 86.742165,137.322418 
	C89.231560,137.471909 91.737587,137.456528 94.232300,137.386017 
	C104.761055,137.088486 111.496216,130.309937 111.839920,119.700325 
	C111.893044,118.060341 111.847336,116.417160 111.847336,114.280769 
	C115.296150,114.877548 118.296356,115.396698 121.178055,115.895340 
	C122.853027,127.269363 118.109489,138.140732 108.135094,143.104462 
	C96.482864,148.903168 84.269806,149.051605 72.828972,142.297028 
	C65.216225,137.802536 60.977520,130.651047 60.924877,121.611107 
	C60.806583,101.297707 60.700729,80.980911 60.950001,60.669914 
	C61.108250,47.776146 70.863152,36.954807 83.753006,35.803112 
	C90.247055,35.222881 97.208870,35.372627 103.420898,37.113266 
	C115.048279,40.371319 121.702980,50.759212 121.751266,62.796566 
	C121.762138,65.506264 120.940689,66.804024 118.170914,66.952431 
	C116.230751,67.056396 114.309479,67.512856 112.458206,67.799736 
	C111.818932,63.503922 111.212852,59.431152 110.407341,55.021526 
z"/>
</svg>